<svg xmlns="http://www.w3.org/2000/svg" viewBox="0 0 1050 240" fill="none">
  <g transform="translate(0, 20) scale(0.78125)">
    <rect x="28"  y="38"  width="32" height="180" rx="6" fill="#0B1220"/>
  <rect x="72"  y="98"  width="32" height="120" rx="6" fill="#0B1220" opacity="0.85"/>
  <rect x="116" y="148" width="32" height="70"  rx="6" fill="#0B1220" opacity="0.7"/>
  <rect x="160" y="98"  width="32" height="120" rx="6" fill="#0B1220" opacity="0.85"/>
  <rect x="204" y="38"  width="32" height="180" rx="6" fill="#0B1220"/>
  <rect x="28" y="226" width="208" height="2" rx="1" fill="#0B1220" opacity="0.35"/>
  </g>
  <g transform="translate(236, 180.00)">
    <path transform="translate(0.00, 0) scale(0.15000, -0.15000)" d="M75.75 0V545.25H194.25V310.625H184.75Q184.75 393.625 205.875 449.375Q227 505.125 268.625 533.8125Q310.25 562.5 372 562.5H378.5Q440.875 562.5 482.375 533.8125Q523.875 505.125 544.8125 449.375Q565.75 393.625 565.75 310.625H529Q529 393.625 550.3125 449.375Q571.625 505.125 613.4375 533.8125Q655.25 562.5 717 562.5H723.5Q785.875 562.5 828.1875 533.8125Q870.5 505.125 892.25 449.375Q914 393.625 914 310.625V0H764.25V321.625Q764.25 369.75 739.4375 399.0Q714.625 428.25 669.5 428.25Q623.625 428.25 596.6875 398.25Q569.75 368.25 569.75 318.125V0H420V321.625Q420 369.75 395.1875 399.0Q370.375 428.25 325.25 428.25Q279.375 428.25 252.4375 398.25Q225.5 368.25 225.5 318.125V0Z" fill="#0B1220"/>
  <path transform="translate(147.07, 0) scale(0.15000, -0.15000)" d="M322.75 -19.25Q252.75 -19.25 199.875 4.75Q147 28.75 111.875 69.1875Q76.75 109.625 58.75 159.875Q40.75 210.125 40.75 263V282.25Q40.75 336.75 58.75 387.3125Q76.75 437.875 111.5625 477.6875Q146.375 517.5 198.0625 541.0Q249.75 564.5 316.75 564.5Q405 564.5 464.9375 525.4375Q524.875 486.375 555.8125 423.3125Q586.75 360.25 586.75 287V234.625H104V322.875H494.875L447.25 280.75Q447.25 331.5 432.6875 367.375Q418.125 403.25 389.3125 422.5Q360.5 441.75 316.75 441.75Q272.875 441.75 242.25 421.6875Q211.625 401.625 195.9375 363.8125Q180.25 326 180.25 272Q180.25 221.875 195.3125 183.875Q210.375 145.875 241.875 124.6875Q273.375 103.5 322.75 103.5Q370.125 103.5 400.25 122.125Q430.375 140.75 439.625 168.375H577.125Q565.5 112.75 530.9375 70.25Q496.375 27.75 443.5625 4.25Q390.75 -19.25 322.75 -19.25Z" fill="#0B1220"/>
  <path transform="translate(240.38, 0) scale(0.15000, -0.15000)" d="M75.75 0V545.25H194.25V310.625H184.75Q184.75 393.625 205.875 449.375Q227 505.125 268.625 533.8125Q310.25 562.5 372 562.5H378.5Q440.875 562.5 482.375 533.8125Q523.875 505.125 544.8125 449.375Q565.75 393.625 565.75 310.625H529Q529 393.625 550.3125 449.375Q571.625 505.125 613.4375 533.8125Q655.25 562.5 717 562.5H723.5Q785.875 562.5 828.1875 533.8125Q870.5 505.125 892.25 449.375Q914 393.625 914 310.625V0H764.25V321.625Q764.25 369.75 739.4375 399.0Q714.625 428.25 669.5 428.25Q623.625 428.25 596.6875 398.25Q569.75 368.25 569.75 318.125V0H420V321.625Q420 369.75 395.1875 399.0Q370.375 428.25 325.25 428.25Q279.375 428.25 252.4375 398.25Q225.5 368.25 225.5 318.125V0Z" fill="#0B1220"/>
  <path transform="translate(387.45, 0) scale(0.15000, -0.15000)" d="M278.25 -17.25Q163.875 -17.25 99.1875 30.5625Q34.5 78.375 30.625 163.875H164.375Q167.625 136.625 195.5625 115.0625Q223.5 93.5 280.75 93.5Q326.625 93.5 355.3125 109.625Q384 125.75 384 154.625Q384 180.125 362.125 195.5Q340.25 210.875 286.125 216.25L240.625 221Q145.875 230.875 96.625 274.3125Q47.375 317.75 47.375 387.625Q47.375 444.875 75.875 483.25Q104.375 521.625 154.75 541.4375Q205.125 561.25 270.125 561.25Q373.25 561.25 436.75 515.9375Q500.25 470.625 503.5 384.125H369.75Q366.875 411.75 341.8125 431.125Q316.75 450.5 268.875 450.5Q228.5 450.5 205.4375 435.0Q182.375 419.5 182.375 393.875Q182.375 369.5 201.625 356.5Q220.875 343.5 264.125 338.5L309.625 333.75Q408.125 323.5 463.5625 279.375Q519 235.25 519 160.875Q519 106.5 489.25 66.4375Q459.5 26.375 405.4375 4.5625Q351.375 -17.25 278.25 -17.25Z" fill="#0B1220"/>
  <path transform="translate(470.29, 0) scale(0.15000, -0.15000)" d="M319.125 -19.25Q248.25 -19.25 196.1875 4.4375Q144.125 28.125 109.5625 68.3125Q75 108.5 57.875 158.75Q40.75 209 40.75 261.75V281Q40.75 336.375 58.5 387.25Q76.25 438.125 111.3125 477.9375Q146.375 517.75 198.25 541.125Q250.125 564.5 318.375 564.5Q391 564.5 447.3125 536.375Q503.625 508.25 537.375 458.375Q571.125 408.5 575.125 342.75H429.375Q424.875 382.125 396.8125 409.0625Q368.75 436 318.375 436Q275.125 436 246.8125 415.0Q218.5 394 204.5 357.125Q190.5 320.25 190.5 271.375Q190.5 225.125 203.5625 188.0625Q216.625 151 245.125 130.125Q273.625 109.25 319.125 109.25Q353.5 109.25 377.75 121.5Q402 133.75 416.375 155.4375Q430.75 177.125 434.125 205.5H579.875Q576.25 138.125 541.5 87.75Q506.75 37.375 449.4375 9.0625Q392.125 -19.25 319.125 -19.25Z" fill="#0B1220"/>
  <path transform="translate(561.84, 0) scale(0.15000, -0.15000)" d="M405.625 0V161.25H380.875V338.75Q380.875 383.125 359.25 405.1875Q337.625 427.25 292 427.25Q268.5 427.25 233.0 426.25Q197.5 425.25 160.625 423.625Q123.75 422 94.25 420V546.5Q117.5 548.5 147.3125 550.3125Q177.125 552.125 209.0625 552.9375Q241 553.75 268.75 553.75Q352.625 553.75 409.3125 530.8125Q466 507.875 495.0625 460.125Q524.125 412.375 524.125 336.125V0ZM230.625 -14Q171.875 -14 127.4375 6.8125Q83 27.625 58.25 66.9375Q33.5 106.25 33.5 161.25Q33.5 221.375 63.6875 259.6875Q93.875 298 148.5 316.5625Q203.125 335.125 275.875 335.125H397.125V249.375H274.375Q229.5 249.375 205.375 227.3125Q181.25 205.25 181.25 169.375Q181.25 134.125 205.375 112.4375Q229.5 90.75 274.375 90.75Q302.125 90.75 325.3125 100.75Q348.5 110.75 363.6875 134.9375Q378.875 159.125 380.875 201.75L416.875 162.5Q411.875 105.5 389.375 66.375Q366.875 27.25 327.375 6.625Q287.875 -14 230.625 -14Z" fill="#0B1220"/>
  <path transform="translate(650.44, 0) scale(0.15000, -0.15000)" d="M83 0V730H232.75V0ZM16.5 619V730H232.75V619Z" fill="#0B1220"/>
  <path transform="translate(696.90, 0) scale(0.15000, -0.15000)" d="M322.75 -19.25Q252.75 -19.25 199.875 4.75Q147 28.75 111.875 69.1875Q76.75 109.625 58.75 159.875Q40.75 210.125 40.75 263V282.25Q40.75 336.75 58.75 387.3125Q76.75 437.875 111.5625 477.6875Q146.375 517.5 198.0625 541.0Q249.75 564.5 316.75 564.5Q405 564.5 464.9375 525.4375Q524.875 486.375 555.8125 423.3125Q586.75 360.25 586.75 287V234.625H104V322.875H494.875L447.25 280.75Q447.25 331.5 432.6875 367.375Q418.125 403.25 389.3125 422.5Q360.5 441.75 316.75 441.75Q272.875 441.75 242.25 421.6875Q211.625 401.625 195.9375 363.8125Q180.25 326 180.25 272Q180.25 221.875 195.3125 183.875Q210.375 145.875 241.875 124.6875Q273.375 103.5 322.75 103.5Q370.125 103.5 400.25 122.125Q430.375 140.75 439.625 168.375H577.125Q565.5 112.75 530.9375 70.25Q496.375 27.75 443.5625 4.25Q390.75 -19.25 322.75 -19.25Z" fill="#0B1220"/>
  </g>
</svg>
